DBRep_DrawableShape

CASCADE Topology V1, (c) Matra-Datavision
Locations 0
Curve2ds 8
1 0 1 1 0 
1 0 -0 0 1 
1 6.2831853071795862 -0 0 1 
1 0 0 1 0 
1 3.1415926535897931 0 0 1 
1 3.1415926535897931 0 0 1 
1 0 0 1 0 
1 0 1 1 0 
Curves 6
2 0 0 1 0 0 1 1 0 0 0 1 0 1
1 1 -2.4492935982947064e-16 0 0 0 1 
2 0 0 0 0 0 1 1 0 0 0 1 0 1
1 -1 1.2246467991473532e-16 0 0 0 1 
2 0 0 0 0 0 1 1 0 0 0 1 0 1
2 0 0 1 0 0 1 1 0 0 0 1 0 1
Polygon3D 0
PolygonOnTriangulations 0
Surfaces 4
10 0 3.1415926535897931 0 1
2 0 0 0 0 0 1 1 0 0 0 1 0 1
10 3.1415926535897931 6.2831853071795862 0 1
2 0 0 0 0 0 1 1 0 0 0 1 0 1
1 0 0 1 0 0 1 1 0 0 0 1 0 
1 0 0 0 0 0 1 1 0 0 0 1 0 
Triangulations 0

TShapes 21
Ve
1e-07
-1 1.22464679914735e-16 1
0 0

0101101
*
Ve
1e-07
1 -2.44929359829471e-16 1
0 0

0101101
*
Ed
 1e-07 1 1 0
1  1 0 0 3.14159265358979
2  1 1 0 0 3.14159265358979
0

0101000
-21 0 +20 0 *
Ve
1e-07
1 -2.44929359829471e-16 0
0 0

0101101
*
Ed
 1e-07 1 1 0
1  2 0 0 1
2  2 1 0 0 1
2  3 2 0 0 1
0

0101000
-20 0 +18 0 *
Ve
1e-07
-1 1.22464679914735e-16 0
0 0

0101101
*
Ed
 1e-07 1 1 0
1  3 0 0 3.14159265358979
2  4 1 0 0 3.14159265358979
0

0101000
+18 0 -16 0 *
Ed
 1e-05 1 1 0
1  4 0 0 1
2  5 1 0 0 1
2  6 2 0 0 1
0

0101000
+16 0 -21 0 *
Wi

0101100
-19 0 -17 0 +15 0 +14 0 *
Fa
0  1e-07 1 0

0111000
+13 0 *
Ed
 1e-07 1 1 0
1  5 0 3.14159265358979 6.28318530717959
2  7 2 0 3.14159265358979 6.28318530717959
0

0101000
+16 0 -18 0 *
Ed
 1e-07 1 1 0
1  6 0 3.14159265358979 6.28318530717959
2  8 2 0 3.14159265358979 6.28318530717959
0

0101000
-20 0 +21 0 *
Wi

0101100
+11 0 +17 0 -10 0 -14 0 *
Fa
0  1e-07 2 0

0111000
+9 0 *
Wi

0101100
+19 0 +10 0 *
Fa
0  1e-07 3 0

0111000
+7 0 *
Wi

0101100
-15 0 -11 0 *
Fa
0  1e-07 4 0

0111000
-5 0 *
Sh

0101100
+12 0 +8 0 +6 0 -4 0 *
So

0100000
+3 0 *
Co

1100000
+2 0 *

+1 0 
##EGADS HEADER FILE-REV 1 ##
0
  1  1  4  4  6  4  6
3 7 48
capsAIM
#egadsTessAIM;aflr4AIM;tetgenAIM;aflr3AIM;pumiAIM
2 14 1
capsMeshLength
 1.000000000000e+01
3 9 3
capsGroup
#cyl
3 8 3
capsMesh
#cyl
1 5 1
_body
1
1 5 1
_brch
1
    2 0 7
1 5 2
_body
1 3 
1 5 2
_brch
1 3 
3 9 3
capsGroup
#cyl
3 8 3
capsMesh
#cyl
1 5 1
_hist
1
1 7 3
_faceID
1 3 1 
1 9 2
__trace__
1 1 
    2 1 7
1 5 2
_body
1 4 
1 5 2
_brch
1 4 
3 9 3
capsGroup
#cyl
3 8 3
capsMesh
#cyl
1 5 1
_hist
1
1 7 3
_faceID
1 4 1 
1 9 2
__trace__
1 2 
    2 2 7
1 5 2
_body
1 2 
1 5 2
_brch
1 2 
3 9 3
capsGroup
#cyl
3 8 3
capsMesh
#cyl
1 5 1
_hist
1
1 7 3
_faceID
1 2 1 
1 9 2
__trace__
1 3 
    2 3 7
1 5 2
_body
1 1 
1 5 2
_brch
1 1 
3 9 3
capsGroup
#cyl
3 8 3
capsMesh
#cyl
1 5 1
_hist
1
1 7 3
_faceID
1 1 1 
1 9 2
__trace__
1 4 
    4 0 4
1 5 2
_body
1 20003 
1 7 5
_edgeID
1 2 1 3 1 
1 6 1
_nface
2
1 9 2
__trace__
1 1 
    4 1 4
1 5 2
_body
1 40003 
1 7 5
_edgeID
1 3 1 4 2 
1 6 1
_nface
2
1 9 2
__trace__
1 2 
    4 2 4
1 5 2
_body
1 30001 
1 7 5
_edgeID
1 1 1 3 1 
1 6 1
_nface
2
1 9 2
__trace__
1 3 
    4 3 4
1 5 2
_body
1 30004 
1 7 5
_edgeID
1 3 1 4 1 
1 6 1
_nface
2
1 9 2
__trace__
1 4 
    4 4 4
1 5 2
_body
1 40001 
1 7 5
_edgeID
1 1 1 4 1 
1 6 1
_nface
2
1 9 2
__trace__
1 5 
    4 5 4
1 5 2
_body
1 20004 
1 7 5
_edgeID
1 2 1 4 1 
1 6 1
_nface
2
1 9 2
__trace__
1 6 
    5 0 3
1 7 1
_nodeID
1
1 6 1
_nedge
3
1 9 2
__trace__
1 1 
    5 1 3
1 7 1
_nodeID
2
1 6 1
_nedge
3
1 9 2
__trace__
1 2 
    5 2 3
1 7 1
_nodeID
3
1 6 1
_nedge
3
1 9 2
__trace__
1 3 
    5 3 3
1 7 1
_nodeID
4
1 6 1
_nedge
3
1 9 2
__trace__
1 4 
    0 0 0
##EGADS HEADER FILE-EXT 1 ##
2
2 1
 4 6 4
 7
 1.000000000000e+00 -2.449293598295e-16  1.000000000000e+00  0.000000000000e+00
 8.695558918879e-01  4.938345379609e-01  1.000000000000e+00  5.164940250231e-01
 5.049193024351e-01  8.631665528903e-01  1.000000000000e+00  1.041507854173e+00
 1.130136104863e-03  9.999993613960e-01  1.000000000000e+00  1.569666190449e+00
-5.031041178176e-01  8.642258076655e-01  1.000000000000e+00  2.097983153038e+00
-8.687945175294e-01  4.951727842994e-01  1.000000000000e+00  2.623558955015e+00
-1.000000000000e+00  1.224646799147e-16  1.000000000000e+00  3.141592653590e+00
 3
 1.000000000000e+00 -2.449293598295e-16  0.000000000000e+00  0.000000000000e+00
 1.000000000000e+00 -2.449293598295e-16  4.973053134670e-01  4.973053134670e-01
 1.000000000000e+00 -2.449293598295e-16  1.000000000000e+00  1.000000000000e+00
 7
 1.000000000000e+00 -2.449293598295e-16  0.000000000000e+00  0.000000000000e+00
 8.678923488564e-01  4.967523233932e-01  0.000000000000e+00  5.198527238562e-01
 5.006529269213e-01  8.656481079313e-01  0.000000000000e+00  1.046443451898e+00
-4.322681653532e-03  9.999906571680e-01  0.000000000000e+00  1.575119021911e+00
-5.073358168817e-01  8.617484371376e-01  0.000000000000e+00  2.102886691544e+00
-8.704298021387e-01  4.922925548379e-01  0.000000000000e+00  2.626871037069e+00
-1.000000000000e+00  1.224646799147e-16  0.000000000000e+00  3.141592653590e+00
 3
-1.000000000000e+00  1.224646799147e-16  0.000000000000e+00  0.000000000000e+00
-1.000000000000e+00  1.224646799147e-16  4.973041557264e-01  4.973041557264e-01
-1.000000000000e+00  1.224646799147e-16  1.000000000000e+00  1.000000000000e+00
 7
-1.000000000000e+00  1.224646799147e-16  0.000000000000e+00  3.141592653590e+00
-8.690889014549e-01 -4.946559222004e-01  0.000000000000e+00  3.659031534263e+00
-5.040332436646e-01 -8.636842532320e-01  0.000000000000e+00  4.184126721133e+00
-2.091172244214e-04 -9.999999781350e-01  0.000000000000e+00  4.712179863159e+00
 5.038236136371e-01 -8.638065560886e-01  0.000000000000e+00  5.240408540774e+00
 8.691299800634e-01 -4.945837419033e-01  0.000000000000e+00  5.765829477378e+00
 1.000000000000e+00 -2.449293598295e-16  0.000000000000e+00  6.283185307180e+00
 7
-1.000000000000e+00  1.224646799147e-16  1.000000000000e+00  3.141592653590e+00
-8.669741172919e-01 -4.983531678899e-01  1.000000000000e+00  3.663290872847e+00
-4.976631240493e-01 -8.673704024011e-01  1.000000000000e+00  4.191486501301e+00
 8.924669781777e-03 -9.999601743416e-01  1.000000000000e+00  4.721313768645e+00
 5.114964926390e-01 -8.592853647177e-01  1.000000000000e+00  5.249314424662e+00
 8.722637869800e-01 -4.890356693772e-01  1.000000000000e+00  5.772201446613e+00
 1.000000000000e+00 -2.449293598295e-16  1.000000000000e+00  6.283185307180e+00
 24 30
-1.000000000000e+00  1.224646799147e-16  1.000000000000e+00  3.141592653590e+00  1.000000000000e+00 0 1
-8.687945175294e-01  4.951727842994e-01  1.000000000000e+00  2.623558955015e+00  1.000000000000e+00 6 1
-5.031041178176e-01  8.642258076655e-01  1.000000000000e+00  2.097983153038e+00  1.000000000000e+00 5 1
 1.130136104863e-03  9.999993613960e-01  1.000000000000e+00  1.569666190449e+00  1.000000000000e+00 4 1
 5.049193024351e-01  8.631665528903e-01  1.000000000000e+00  1.041507854173e+00  1.000000000000e+00 3 1
 8.695558918879e-01  4.938345379609e-01  1.000000000000e+00  5.164940250231e-01  1.000000000000e+00 2 1
 1.000000000000e+00 -2.449293598295e-16  1.000000000000e+00  0.000000000000e+00  1.000000000000e+00 0 2
 1.000000000000e+00 -2.449293598295e-16  4.973053134670e-01  0.000000000000e+00  4.973053134670e-01 2 2
 1.000000000000e+00 -2.449293598295e-16  0.000000000000e+00  0.000000000000e+00  0.000000000000e+00 0 3
 8.678923488564e-01  4.967523233932e-01  0.000000000000e+00  5.198527238562e-01  0.000000000000e+00 2 3
 5.006529269213e-01  8.656481079313e-01  0.000000000000e+00  1.046443451898e+00  0.000000000000e+00 3 3
-4.322681653532e-03  9.999906571680e-01  0.000000000000e+00  1.575119021911e+00  0.000000000000e+00 4 3
-5.073358168817e-01  8.617484371376e-01  0.000000000000e+00  2.102886691544e+00  0.000000000000e+00 5 3
-8.704298021387e-01  4.922925548379e-01  0.000000000000e+00  2.626871037069e+00  0.000000000000e+00 6 3
-1.000000000000e+00  1.224646799147e-16  0.000000000000e+00  3.141592653590e+00  0.000000000000e+00 0 4
-1.000000000000e+00  1.224646799147e-16  4.973041557264e-01  3.141592653590e+00  4.973041557264e-01 2 4
 2.669268943236e-01  9.637167805360e-01  5.074761165742e-01  1.300593516021e+00  5.074761165742e-01 -1 -1
 7.556006832509e-01  6.550325239794e-01  4.744405736321e-01  7.142256635456e-01  4.744405736321e-01 -1 -1
-2.670411513007e-01  9.636851267463e-01  5.132213716302e-01  1.841117698183e+00  5.132213716302e-01 -1 -1
-7.566027806996e-01  6.538747833015e-01  5.285712484394e-01  2.428898186711e+00  5.285712484394e-01 -1 -1
-9.666422599725e-01  2.561303208043e-01  7.486520778632e-01  2.882575804303e+00  7.486520778632e-01 -1 -1
-9.670650966038e-01  2.545291710800e-01  2.486520778632e-01  2.884231845330e+00  2.486520778632e-01 -1 -1
 9.668391520537e-01  2.553860882195e-01  7.486526567335e-01  2.582470125116e-01  7.486526567335e-01 -1 -1
 9.664089064305e-01  2.570093881005e-01  2.486526567335e-01  2.599263619281e-01  2.486526567335e-01 -1 -1
2 21 1 23 -1 24
16 22 15 25 -4 26
8 23 7 27 -2 28
10 24 9 29 -3 30
24 18 23 13 28 30
17 11 12 -3 14 18
18 5 6 -1 13 16
19 12 13 -3 10 14
20 13 14 -3 11 10
19 13 20 9 22 8
14 22 20 12 9 25
21 20 22 11 26 24
6 23 18 5 7 27
12 19 17 20 6 8
17 4 5 -1 16 20
17 5 18 7 18 15
18 10 11 -3 18 30
18 11 17 6 16 17
19 3 4 -1 20 22
19 4 17 15 14 19
20 2 3 -1 22 24
20 3 19 19 10 21
21 16 1 -4 1 26
21 2 20 21 12 1
22 14 15 -3 2 11
22 16 21 23 12 2
23 6 7 -1 3 13
23 8 24 29 5 3
24 8 9 -2 4 28
24 10 18 17 5 4
 24 30
-1.000000000000e+00  1.224646799147e-16  0.000000000000e+00  3.141592653590e+00  0.000000000000e+00 0 4
-8.690889014549e-01 -4.946559222004e-01  0.000000000000e+00  3.659031534263e+00  0.000000000000e+00 2 5
-5.040332436646e-01 -8.636842532320e-01  0.000000000000e+00  4.184126721133e+00  0.000000000000e+00 3 5
-2.091172244214e-04 -9.999999781350e-01  0.000000000000e+00  4.712179863159e+00  0.000000000000e+00 4 5
 5.038236136371e-01 -8.638065560886e-01  0.000000000000e+00  5.240408540774e+00  0.000000000000e+00 5 5
 8.691299800634e-01 -4.945837419033e-01  0.000000000000e+00  5.765829477378e+00  0.000000000000e+00 6 5
 1.000000000000e+00 -2.449293598295e-16  0.000000000000e+00  6.283185307180e+00  0.000000000000e+00 0 3
 1.000000000000e+00 -2.449293598295e-16  4.973053134670e-01  6.283185307180e+00  4.973053134670e-01 2 2
 1.000000000000e+00 -2.449293598295e-16  1.000000000000e+00  6.283185307180e+00  1.000000000000e+00 0 2
 8.722637869800e-01 -4.890356693772e-01  1.000000000000e+00  5.772201446613e+00  1.000000000000e+00 6 6
 5.114964926390e-01 -8.592853647177e-01  1.000000000000e+00  5.249314424662e+00  1.000000000000e+00 5 6
 8.924669781777e-03 -9.999601743416e-01  1.000000000000e+00  4.721313768645e+00  1.000000000000e+00 4 6
-4.976631240493e-01 -8.673704024011e-01  1.000000000000e+00  4.191486501301e+00  1.000000000000e+00 3 6
-8.669741172919e-01 -4.983531678899e-01  1.000000000000e+00  3.663290872847e+00  1.000000000000e+00 2 6
-1.000000000000e+00  1.224646799147e-16  1.000000000000e+00  3.141592653590e+00  1.000000000000e+00 0 1
-1.000000000000e+00  1.224646799147e-16  4.973041557264e-01  3.141592653590e+00  4.973041557264e-01 2 4
-2.639635616288e-01 -9.645326527040e-01  4.940222465717e-01  4.445259766118e+00  4.940222465717e-01 -1 -1
 2.716056044360e-01 -9.624086427495e-01  5.077932006244e-01  4.987449938872e+00  5.077932006244e-01 -1 -1
 7.574498813601e-01 -6.528933122859e-01  4.723372538613e-01  5.571787322124e+00  4.723372538613e-01 -1 -1
-7.546801386886e-01 -6.560928960665e-01  5.252791347617e-01  3.857222522098e+00  5.252791347617e-01 -1 -1
-9.667183926705e-01 -2.558428214208e-01  2.486520778632e-01  3.400312093926e+00  2.486520778632e-01 -1 -1
-9.661713402114e-01 -2.579010301531e-01  7.486520778632e-01  3.402441763218e+00  7.486520778632e-01 -1 -1
 9.675390914532e-01 -2.527214009734e-01  7.486526567335e-01  6.027693376896e+00  7.486526567335e-01 -1 -1
 9.667290158217e-01 -2.558026777974e-01  2.486526567335e-01  6.024507392279e+00  2.486526567335e-01 -1 -1
2 21 1 23 -5 24
16 22 15 25 -4 26
10 23 9 27 -6 28
8 24 7 29 -2 30
18 5 19 19 10 8
10 11 19 10 28 -6
23 19 24 20 30 28
4 5 18 5 16 -5
17 13 20 21 11 14
19 11 18 17 5 6
20 3 17 15 9 13
21 20 22 22 26 24
2 3 20 11 24 -5
12 13 17 9 18 -6
17 3 4 -5 16 11
17 4 18 8 18 15
18 11 12 -6 18 10
18 12 17 14 16 17
19 5 6 -5 20 5
6 24 19 7 19 29
20 13 14 -6 22 9
14 22 20 12 21 25
21 16 1 -4 1 26
21 2 20 13 12 1
22 14 15 -6 2 22
22 16 21 23 12 2
23 8 9 -2 3 30
23 10 19 6 7 3
24 6 7 -5 4 20
24 8 23 27 7 4
 16 18
 1.000000000000e+00 -2.449293598295e-16  1.000000000000e+00  1.000000000000e+00  0.000000000000e+00 0 2
 8.695558918879e-01  4.938345379609e-01  1.000000000000e+00  8.695558918879e-01  4.938345379609e-01 2 1
 5.049193024351e-01  8.631665528903e-01  1.000000000000e+00  5.049193024351e-01  8.631665528903e-01 3 1
 1.130136104863e-03  9.999993613960e-01  1.000000000000e+00  1.130136104863e-03  9.999993613960e-01 4 1
-5.031041178176e-01  8.642258076655e-01  1.000000000000e+00 -5.031041178176e-01  8.642258076655e-01 5 1
-8.687945175294e-01  4.951727842994e-01  1.000000000000e+00 -8.687945175294e-01  4.951727842994e-01 6 1
-1.000000000000e+00  1.224646799147e-16  1.000000000000e+00 -1.000000000000e+00  1.224646799147e-16 0 1
-8.669741172919e-01 -4.983531678899e-01  1.000000000000e+00 -8.669741172919e-01 -4.983531678899e-01 2 6
-4.976631240493e-01 -8.673704024011e-01  1.000000000000e+00 -4.976631240493e-01 -8.673704024011e-01 3 6
 8.924669781777e-03 -9.999601743416e-01  1.000000000000e+00  8.924669781777e-03 -9.999601743416e-01 4 6
 5.114964926390e-01 -8.592853647177e-01  1.000000000000e+00  5.114964926390e-01 -8.592853647177e-01 5 6
 8.722637869800e-01 -4.890356693772e-01  1.000000000000e+00  8.722637869800e-01 -4.890356693772e-01 6 6
-2.822874934043e-01 -2.856195464705e-01  1.000000000000e+00 -2.822874934043e-01 -2.856195464705e-01 -1 -1
-3.526746396660e-01  3.520389440586e-01  1.000000000000e+00 -3.526746396660e-01  3.520389440586e-01 -1 -1
 2.850107332256e-01  2.821725990239e-01  1.000000000000e+00  2.850107332256e-01  2.821725990239e-01 -1 -1
 3.588849028600e-01 -3.548494733823e-01  1.000000000000e+00  3.588849028600e-01 -3.548494733823e-01 -1 -1
10 16 13 12 17 8
5 6 14 3 4 -1
6 7 14 13 2 -1
4 5 14 2 7 -1
7 8 13 11 13 -6
1 2 15 15 10 -1
14 15 4 14 4 16
10 11 16 9 1 -6
11 12 16 18 8 -6
1 15 16 12 18 6
13 8 9 -6 17 5
13 16 15 10 16 1
14 7 13 5 16 3
15 3 4 -1 7 15
15 2 3 -1 14 6
15 14 13 13 12 7
13 9 10 -6 1 11
16 12 1 -6 10 9
 16 18
-1.000000000000e+00  1.224646799147e-16  0.000000000000e+00 -1.000000000000e+00  1.224646799147e-16 0 4
-8.690889014549e-01 -4.946559222004e-01  0.000000000000e+00 -8.690889014549e-01 -4.946559222004e-01 2 5
-5.040332436646e-01 -8.636842532320e-01  0.000000000000e+00 -5.040332436646e-01 -8.636842532320e-01 3 5
-2.091172244214e-04 -9.999999781350e-01  0.000000000000e+00 -2.091172244214e-04 -9.999999781350e-01 4 5
 5.038236136371e-01 -8.638065560886e-01  0.000000000000e+00  5.038236136371e-01 -8.638065560886e-01 5 5
 8.691299800634e-01 -4.945837419033e-01  0.000000000000e+00  8.691299800634e-01 -4.945837419033e-01 6 5
 1.000000000000e+00 -2.449293598295e-16  0.000000000000e+00  1.000000000000e+00  0.000000000000e+00 0 3
 8.678923488564e-01  4.967523233932e-01  0.000000000000e+00  8.678923488564e-01  4.967523233932e-01 2 3
 5.006529269213e-01  8.656481079313e-01  0.000000000000e+00  5.006529269213e-01  8.656481079313e-01 3 3
-4.322681653532e-03  9.999906571680e-01  0.000000000000e+00 -4.322681653532e-03  9.999906571680e-01 4 3
-5.073358168817e-01  8.617484371376e-01  0.000000000000e+00 -5.073358168817e-01  8.617484371376e-01 5 3
-8.704298021387e-01  4.922925548379e-01  0.000000000000e+00 -8.704298021387e-01  4.922925548379e-01 6 3
-2.849173525207e-01 -2.834457507666e-01  0.000000000000e+00 -2.849173525207e-01 -2.834457507666e-01 -1 -1
-3.563922025409e-01  3.536993816936e-01  0.000000000000e+00 -3.563922025409e-01  3.536993816936e-01 -1 -1
 3.538720232638e-01 -3.535054429749e-01  0.000000000000e+00  3.538720232638e-01 -3.535054429749e-01 -1 -1
 2.825662376553e-01  2.834523221951e-01  0.000000000000e+00  2.825662376553e-01  2.834523221951e-01 -1 -1
4 3 13 12 8 -5
14 11 10 -3 13 3
14 12 11 -3 2 4
14 1 12 -3 3 10
15 6 5 -5 7 6
15 7 6 -5 5 16
15 5 4 -5 8 5
13 15 4 7 1 9
13 16 15 16 8 11
1 14 13 11 14 4
16 13 14 10 13 9
2 13 3 1 -5 14
16 14 10 2 18 11
13 2 1 -5 10 12
16 8 7 -3 16 17
7 15 16 9 15 6
9 8 16 15 18 -3
10 9 16 17 13 -3
0
