DBRep_DrawableShape

CASCADE Topology V1, (c) Matra-Datavision
Locations 0
Curve2ds 0
Curves 12
1 0 0 0 0 0 1 
1 0 0 1 -0 1 0 
1 0 1 0 0 0 1 
1 0 0 0 -0 1 0 
1 1 0 0 0 0 1 
1 1 0 1 -0 1 0 
1 1 1 0 0 0 1 
1 1 0 0 -0 1 0 
1 0 0 0 1 0 -0 
1 0 0 1 1 0 -0 
1 0 1 0 1 0 -0 
1 0 1 1 1 0 -0 
Polygon3D 0
PolygonOnTriangulations 0
Surfaces 6
1 0 0 0 1 0 -0 0 0 1 0 -1 0 
1 1 0 0 1 0 -0 0 0 1 0 -1 0 
1 0 0 0 -0 1 0 0 0 1 1 0 -0 
1 0 1 0 -0 1 0 0 0 1 1 0 -0 
1 0 0 0 0 0 1 1 0 -0 -0 1 0 
1 0 0 1 0 0 1 1 0 -0 -0 1 0 
Triangulations 0

TShapes 35
Ve
1e-07
0 0 1
0 0

0101101
*
Ve
1e-07
0 0 0
0 0

0101101
*
Ed
 1e-07 1 1 0
1  1 0 0 1
0

0101000
-35 0 +34 0 *
Ve
1e-07
0 1 1
0 0

0101101
*
Ed
 1e-07 1 1 0
1  2 0 0 1
0

0101000
-32 0 +35 0 *
Ve
1e-07
0 1 0
0 0

0101101
*
Ed
 1e-07 1 1 0
1  3 0 0 1
0

0101000
-32 0 +30 0 *
Ed
 1e-07 1 1 0
1  4 0 0 1
0

0101000
-30 0 +34 0 *
Wi

0101100
-33 0 -31 0 +29 0 +28 0 *
Fa
0  1e-07 1 0

0111000
+27 0 *
Ve
1e-07
1 0 1
0 0

0101101
*
Ve
1e-07
1 0 0
0 0

0101101
*
Ed
 1e-07 1 1 0
1  5 0 0 1
0

0101000
-25 0 +24 0 *
Ve
1e-07
1 1 1
0 0

0101101
*
Ed
 1e-07 1 1 0
1  6 0 0 1
0

0101000
-22 0 +25 0 *
Ve
1e-07
1 1 0
0 0

0101101
*
Ed
 1e-07 1 1 0
1  7 0 0 1
0

0101000
-22 0 +20 0 *
Ed
 1e-07 1 1 0
1  8 0 0 1
0

0101000
-20 0 +24 0 *
Wi

0101100
-23 0 -21 0 +19 0 +18 0 *
Fa
0  1e-07 2 0

0111000
+17 0 *
Ed
 1e-07 1 1 0
1  9 0 0 1
0

0101000
-24 0 +34 0 *
Ed
 1e-07 1 1 0
1  10 0 0 1
0

0101000
-25 0 +35 0 *
Wi

0101100
-15 0 -23 0 +14 0 +33 0 *
Fa
0  1e-07 3 0

0111000
+13 0 *
Ed
 1e-07 1 1 0
1  11 0 0 1
0

0101000
-20 0 +30 0 *
Ed
 1e-07 1 1 0
1  12 0 0 1
0

0101000
-22 0 +32 0 *
Wi

0101100
-11 0 -19 0 +10 0 +29 0 *
Fa
0  1e-07 4 0

0111000
+9 0 *
Wi

0101100
-28 0 -11 0 +18 0 +15 0 *
Fa
0  1e-07 5 0

0111000
+7 0 *
Wi

0101100
-31 0 -10 0 +21 0 +14 0 *
Fa
0  1e-07 6 0

0111000
+5 0 *
Sh

0101100
-26 0 +16 0 -12 0 +8 0 -6 0 +4 0 *
So

0100000
+3 0 *
Co

1100000
+2 0 *

+1 0 
##EGADS HEADER FILE-REV 1 ##
0
  1  1  6  6  12  8  6
3 7 48
capsAIM
#egadsTessAIM;aflr4AIM;tetgenAIM;aflr3AIM;pumiAIM
2 14 1
capsMeshLength
 1.000000000000e+00
3 9 3
capsGroup
#box
3 8 3
capsMesh
#box
1 5 1
_body
1
1 5 1
_brch
1
    2 0 7
1 5 2
_body
1 1 
1 5 2
_brch
1 1 
3 9 3
capsGroup
#box
3 8 3
capsMesh
#box
1 5 1
_hist
1
1 7 3
_faceID
1 1 1 
1 9 2
__trace__
1 1 
    2 1 7
1 5 2
_body
1 2 
1 5 2
_brch
1 2 
3 9 3
capsGroup
#box
3 8 3
capsMesh
#box
1 5 1
_hist
1
1 7 3
_faceID
1 2 1 
1 9 2
__trace__
1 2 
    2 2 7
1 5 2
_body
1 3 
1 5 2
_brch
1 3 
3 9 3
capsGroup
#box
3 8 3
capsMesh
#box
1 5 1
_hist
1
1 7 3
_faceID
1 3 1 
1 9 2
__trace__
1 3 
    2 3 7
1 5 2
_body
1 4 
1 5 2
_brch
1 4 
3 9 3
capsGroup
#box
3 8 3
capsMesh
#box
1 5 1
_hist
1
1 7 3
_faceID
1 4 1 
1 9 2
__trace__
1 4 
    2 4 7
1 5 2
_body
1 5 
1 5 2
_brch
1 5 
3 9 3
capsGroup
#box
3 8 3
capsMesh
#box
1 5 1
_hist
1
1 7 3
_faceID
1 5 1 
1 9 2
__trace__
1 5 
    2 5 7
1 5 2
_body
1 6 
1 5 2
_brch
1 6 
3 9 3
capsGroup
#box
3 8 3
capsMesh
#box
1 5 1
_hist
1
1 7 3
_faceID
1 6 1 
1 9 2
__trace__
1 6 
    4 0 4
1 5 2
_body
1 10003 
1 7 5
_edgeID
1 1 1 3 1 
1 6 1
_nface
2
1 9 2
__trace__
1 1 
    4 1 4
1 5 2
_body
1 10006 
1 7 5
_edgeID
1 1 1 6 1 
1 6 1
_nface
2
1 9 2
__trace__
1 2 
    4 2 4
1 5 2
_body
1 40001 
1 7 5
_edgeID
1 1 1 4 1 
1 6 1
_nface
2
1 9 2
__trace__
1 3 
    4 3 4
1 5 2
_body
1 50001 
1 7 5
_edgeID
1 1 1 5 1 
1 6 1
_nface
2
1 9 2
__trace__
1 4 
    4 4 4
1 5 2
_body
1 30002 
1 7 5
_edgeID
1 2 1 3 1 
1 6 1
_nface
2
1 9 2
__trace__
1 5 
    4 5 4
1 5 2
_body
1 60002 
1 7 5
_edgeID
1 2 1 6 1 
1 6 1
_nface
2
1 9 2
__trace__
1 6 
    4 6 4
1 5 2
_body
1 20004 
1 7 5
_edgeID
1 2 1 4 1 
1 6 1
_nface
2
1 9 2
__trace__
1 7 
    4 7 4
1 5 2
_body
1 20005 
1 7 5
_edgeID
1 2 1 5 1 
1 6 1
_nface
2
1 9 2
__trace__
1 8 
    4 8 4
1 5 2
_body
1 30005 
1 7 5
_edgeID
1 3 1 5 1 
1 6 1
_nface
2
1 9 2
__trace__
1 9 
    4 9 4
1 5 2
_body
1 60003 
1 7 5
_edgeID
1 3 1 6 1 
1 6 1
_nface
2
1 9 2
__trace__
1 10 
    4 10 4
1 5 2
_body
1 50004 
1 7 5
_edgeID
1 4 1 5 1 
1 6 1
_nface
2
1 9 2
__trace__
1 11 
    4 11 4
1 5 2
_body
1 40006 
1 7 5
_edgeID
1 4 1 6 1 
1 6 1
_nface
2
1 9 2
__trace__
1 12 
    5 0 3
1 7 1
_nodeID
1
1 6 1
_nedge
3
1 9 2
__trace__
1 1 
    5 1 3
1 7 1
_nodeID
2
1 6 1
_nedge
3
1 9 2
__trace__
1 2 
    5 2 3
1 7 1
_nodeID
3
1 6 1
_nedge
3
1 9 2
__trace__
1 3 
    5 3 3
1 7 1
_nodeID
4
1 6 1
_nedge
3
1 9 2
__trace__
1 4 
    5 4 3
1 7 1
_nodeID
5
1 6 1
_nedge
3
1 9 2
__trace__
1 5 
    5 5 3
1 7 1
_nodeID
6
1 6 1
_nedge
3
1 9 2
__trace__
1 6 
    5 6 3
1 7 1
_nodeID
7
1 6 1
_nedge
3
1 9 2
__trace__
1 7 
    5 7 3
1 7 1
_nodeID
8
1 6 1
_nedge
3
1 9 2
__trace__
1 8 
    0 0 0
##EGADS HEADER FILE-EXT 1 ##
2
2 1
 8 12 6
 3
 0.000000000000e+00  0.000000000000e+00  0.000000000000e+00  0.000000000000e+00
 0.000000000000e+00  0.000000000000e+00  5.000000000000e-01  5.000000000000e-01
 0.000000000000e+00  0.000000000000e+00  1.000000000000e+00  1.000000000000e+00
 3
 0.000000000000e+00  0.000000000000e+00  1.000000000000e+00  0.000000000000e+00
 0.000000000000e+00  5.000000000000e-01  1.000000000000e+00  5.000000000000e-01
 0.000000000000e+00  1.000000000000e+00  1.000000000000e+00  1.000000000000e+00
 3
 0.000000000000e+00  1.000000000000e+00  0.000000000000e+00  0.000000000000e+00
 0.000000000000e+00  1.000000000000e+00  5.000000000000e-01  5.000000000000e-01
 0.000000000000e+00  1.000000000000e+00  1.000000000000e+00  1.000000000000e+00
 3
 0.000000000000e+00  0.000000000000e+00  0.000000000000e+00  0.000000000000e+00
 0.000000000000e+00  5.000000000000e-01  0.000000000000e+00  5.000000000000e-01
 0.000000000000e+00  1.000000000000e+00  0.000000000000e+00  1.000000000000e+00
 3
 1.000000000000e+00  0.000000000000e+00  0.000000000000e+00  0.000000000000e+00
 1.000000000000e+00  0.000000000000e+00  5.000000000000e-01  5.000000000000e-01
 1.000000000000e+00  0.000000000000e+00  1.000000000000e+00  1.000000000000e+00
 3
 1.000000000000e+00  0.000000000000e+00  1.000000000000e+00  0.000000000000e+00
 1.000000000000e+00  5.000000000000e-01  1.000000000000e+00  5.000000000000e-01
 1.000000000000e+00  1.000000000000e+00  1.000000000000e+00  1.000000000000e+00
 3
 1.000000000000e+00  1.000000000000e+00  0.000000000000e+00  0.000000000000e+00
 1.000000000000e+00  1.000000000000e+00  5.000000000000e-01  5.000000000000e-01
 1.000000000000e+00  1.000000000000e+00  1.000000000000e+00  1.000000000000e+00
 3
 1.000000000000e+00  0.000000000000e+00  0.000000000000e+00  0.000000000000e+00
 1.000000000000e+00  5.000000000000e-01  0.000000000000e+00  5.000000000000e-01
 1.000000000000e+00  1.000000000000e+00  0.000000000000e+00  1.000000000000e+00
 3
 0.000000000000e+00  0.000000000000e+00  0.000000000000e+00  0.000000000000e+00
 5.000000000000e-01  0.000000000000e+00  0.000000000000e+00  5.000000000000e-01
 1.000000000000e+00  0.000000000000e+00  0.000000000000e+00  1.000000000000e+00
 3
 0.000000000000e+00  0.000000000000e+00  1.000000000000e+00  0.000000000000e+00
 5.000000000000e-01  0.000000000000e+00  1.000000000000e+00  5.000000000000e-01
 1.000000000000e+00  0.000000000000e+00  1.000000000000e+00  1.000000000000e+00
 3
 0.000000000000e+00  1.000000000000e+00  0.000000000000e+00  0.000000000000e+00
 5.000000000000e-01  1.000000000000e+00  0.000000000000e+00  5.000000000000e-01
 1.000000000000e+00  1.000000000000e+00  0.000000000000e+00  1.000000000000e+00
 3
 0.000000000000e+00  1.000000000000e+00  1.000000000000e+00  0.000000000000e+00
 5.000000000000e-01  1.000000000000e+00  1.000000000000e+00  5.000000000000e-01
 1.000000000000e+00  1.000000000000e+00  1.000000000000e+00  1.000000000000e+00
 9 8
 0.000000000000e+00  0.000000000000e+00  0.000000000000e+00  0.000000000000e+00  0.000000000000e+00 0 2
 0.000000000000e+00  5.000000000000e-01  0.000000000000e+00  0.000000000000e+00 -5.000000000000e-01 2 4
 0.000000000000e+00  1.000000000000e+00  0.000000000000e+00  0.000000000000e+00 -1.000000000000e+00 0 4
 0.000000000000e+00  1.000000000000e+00  5.000000000000e-01  5.000000000000e-01 -1.000000000000e+00 2 3
 0.000000000000e+00  1.000000000000e+00  1.000000000000e+00  1.000000000000e+00 -1.000000000000e+00 0 3
 0.000000000000e+00  5.000000000000e-01  1.000000000000e+00  1.000000000000e+00 -5.000000000000e-01 2 2
 0.000000000000e+00  0.000000000000e+00  1.000000000000e+00  1.000000000000e+00  0.000000000000e+00 0 1
 0.000000000000e+00  0.000000000000e+00  5.000000000000e-01  5.000000000000e-01  0.000000000000e+00 2 1
 0.000000000000e+00  5.000000000000e-01  5.000000000000e-01  5.000000000000e-01 -5.000000000000e-01 -1 -1
1 8 9 6 2 -1
1 9 2 3 -4 1
2 9 4 8 4 2
2 4 3 -3 -4 3
8 7 6 -2 6 -1
8 6 9 7 1 5
9 6 5 -2 8 6
9 5 4 -3 3 7
 9 8
 1.000000000000e+00  0.000000000000e+00  1.000000000000e+00  1.000000000000e+00  0.000000000000e+00 0 5
 1.000000000000e+00  0.000000000000e+00  5.000000000000e-01  5.000000000000e-01  0.000000000000e+00 2 5
 1.000000000000e+00  0.000000000000e+00  0.000000000000e+00  0.000000000000e+00  0.000000000000e+00 0 6
 1.000000000000e+00  5.000000000000e-01  0.000000000000e+00  0.000000000000e+00 -5.000000000000e-01 2 8
 1.000000000000e+00  1.000000000000e+00  0.000000000000e+00  0.000000000000e+00 -1.000000000000e+00 0 8
 1.000000000000e+00  1.000000000000e+00  5.000000000000e-01  5.000000000000e-01 -1.000000000000e+00 2 7
 1.000000000000e+00  1.000000000000e+00  1.000000000000e+00  1.000000000000e+00 -1.000000000000e+00 0 7
 1.000000000000e+00  5.000000000000e-01  1.000000000000e+00  1.000000000000e+00 -5.000000000000e-01 2 6
 1.000000000000e+00  5.000000000000e-01  5.000000000000e-01  5.000000000000e-01 -5.000000000000e-01 -1 -1
1 2 9 4 2 -5
1 9 8 5 -6 1
2 3 4 -8 4 -5
2 4 9 7 1 3
8 9 6 8 6 2
8 6 7 -7 -6 5
9 4 5 -8 8 4
9 5 6 -7 5 7
 9 8
 0.000000000000e+00  0.000000000000e+00  0.000000000000e+00  0.000000000000e+00  0.000000000000e+00 0 2
 0.000000000000e+00  0.000000000000e+00  5.000000000000e-01  5.000000000000e-01  0.000000000000e+00 2 1
 0.000000000000e+00  0.000000000000e+00  1.000000000000e+00  1.000000000000e+00  0.000000000000e+00 0 1
 5.000000000000e-01  0.000000000000e+00  1.000000000000e+00  1.000000000000e+00  5.000000000000e-01 2 10
 1.000000000000e+00  0.000000000000e+00  1.000000000000e+00  1.000000000000e+00  1.000000000000e+00 0 5
 1.000000000000e+00  0.000000000000e+00  5.000000000000e-01  5.000000000000e-01  1.000000000000e+00 2 5
 1.000000000000e+00  0.000000000000e+00  0.000000000000e+00  0.000000000000e+00  1.000000000000e+00 0 6
 5.000000000000e-01  0.000000000000e+00  0.000000000000e+00  0.000000000000e+00  5.000000000000e-01 2 9
 5.000000000000e-01  0.000000000000e+00  5.000000000000e-01  5.000000000000e-01  5.000000000000e-01 -1 -1
1 8 9 6 2 -9
1 9 2 3 -1 1
2 9 4 8 4 2
2 4 3 -10 -1 3
8 7 6 -5 6 -9
8 6 9 7 1 5
9 6 5 -5 8 6
9 5 4 -10 3 7
 9 8
 1.000000000000e+00  1.000000000000e+00  0.000000000000e+00  0.000000000000e+00  1.000000000000e+00 0 8
 5.000000000000e-01  1.000000000000e+00  0.000000000000e+00  0.000000000000e+00  5.000000000000e-01 2 11
 0.000000000000e+00  1.000000000000e+00  0.000000000000e+00  0.000000000000e+00  0.000000000000e+00 0 4
 0.000000000000e+00  1.000000000000e+00  5.000000000000e-01  5.000000000000e-01  0.000000000000e+00 2 3
 0.000000000000e+00  1.000000000000e+00  1.000000000000e+00  1.000000000000e+00  0.000000000000e+00 0 3
 5.000000000000e-01  1.000000000000e+00  1.000000000000e+00  1.000000000000e+00  5.000000000000e-01 2 12
 1.000000000000e+00  1.000000000000e+00  1.000000000000e+00  1.000000000000e+00  1.000000000000e+00 0 7
 1.000000000000e+00  1.000000000000e+00  5.000000000000e-01  5.000000000000e-01  1.000000000000e+00 2 7
 5.000000000000e-01  1.000000000000e+00  5.000000000000e-01  5.000000000000e-01  5.000000000000e-01 -1 -1
1 2 9 4 2 -11
1 9 8 5 -7 1
2 3 4 -3 4 -11
2 4 9 7 1 3
8 9 6 8 6 2
8 6 7 -12 -7 5
9 4 5 -3 8 4
9 5 6 -12 5 7
 9 8
 0.000000000000e+00  0.000000000000e+00  0.000000000000e+00  0.000000000000e+00  0.000000000000e+00 0 2
 5.000000000000e-01  0.000000000000e+00  0.000000000000e+00  5.000000000000e-01  0.000000000000e+00 2 9
 1.000000000000e+00  0.000000000000e+00  0.000000000000e+00  1.000000000000e+00  0.000000000000e+00 0 6
 1.000000000000e+00  5.000000000000e-01  0.000000000000e+00  1.000000000000e+00  5.000000000000e-01 2 8
 1.000000000000e+00  1.000000000000e+00  0.000000000000e+00  1.000000000000e+00  1.000000000000e+00 0 8
 5.000000000000e-01  1.000000000000e+00  0.000000000000e+00  5.000000000000e-01  1.000000000000e+00 2 11
 0.000000000000e+00  1.000000000000e+00  0.000000000000e+00  0.000000000000e+00  1.000000000000e+00 0 4
 0.000000000000e+00  5.000000000000e-01  0.000000000000e+00  0.000000000000e+00  5.000000000000e-01 2 4
 5.000000000000e-01  5.000000000000e-01  0.000000000000e+00  5.000000000000e-01  5.000000000000e-01 -1 -1
1 8 9 6 2 -4
1 9 2 3 -9 1
2 9 4 8 4 2
2 4 3 -8 -9 3
8 7 6 -11 6 -4
8 6 9 7 1 5
9 6 5 -11 8 6
9 5 4 -8 3 7
 9 8
 0.000000000000e+00  1.000000000000e+00  1.000000000000e+00  0.000000000000e+00  1.000000000000e+00 0 3
 0.000000000000e+00  5.000000000000e-01  1.000000000000e+00  0.000000000000e+00  5.000000000000e-01 2 2
 0.000000000000e+00  0.000000000000e+00  1.000000000000e+00  0.000000000000e+00  0.000000000000e+00 0 1
 5.000000000000e-01  0.000000000000e+00  1.000000000000e+00  5.000000000000e-01  0.000000000000e+00 2 10
 1.000000000000e+00  0.000000000000e+00  1.000000000000e+00  1.000000000000e+00  0.000000000000e+00 0 5
 1.000000000000e+00  5.000000000000e-01  1.000000000000e+00  1.000000000000e+00  5.000000000000e-01 2 6
 1.000000000000e+00  1.000000000000e+00  1.000000000000e+00  1.000000000000e+00  1.000000000000e+00 0 7
 5.000000000000e-01  1.000000000000e+00  1.000000000000e+00  5.000000000000e-01  1.000000000000e+00 2 12
 5.000000000000e-01  5.000000000000e-01  1.000000000000e+00  5.000000000000e-01  5.000000000000e-01 -1 -1
1 2 9 4 2 -2
1 9 8 5 -12 1
2 3 4 -10 4 -2
2 4 9 7 1 3
8 9 6 8 6 2
8 6 7 -6 -12 5
9 4 5 -10 8 4
9 5 6 -6 5 7
0
