DBRep_DrawableShape

CASCADE Topology V1, (c) Matra-Datavision
Locations 0
Curve2ds 8
1 0 1 1 0 
1 0 -0 0 1 
1 6.2831853071795862 -0 0 1 
1 0 0 1 0 
1 3.1415926535897931 0 0 1 
1 3.1415926535897931 0 0 1 
1 0 0 1 0 
1 0 1 1 0 
Curves 6
2 0 0 1 0 0 1 1 0 0 0 1 0 1
1 1 -2.4492935982947064e-16 0 0 0 1 
2 0 0 0 0 0 1 1 0 0 0 1 0 1
1 -1 1.2246467991473532e-16 0 0 0 1 
2 0 0 0 0 0 1 1 0 0 0 1 0 1
2 0 0 1 0 0 1 1 0 0 0 1 0 1
Polygon3D 0
PolygonOnTriangulations 0
Surfaces 4
10 0 3.1415926535897931 0 1
2 0 0 0 0 0 1 1 0 0 0 1 0 1
10 3.1415926535897931 6.2831853071795862 0 1
2 0 0 0 0 0 1 1 0 0 0 1 0 1
1 0 0 1 0 0 1 1 0 0 0 1 0 
1 0 0 0 0 0 1 1 0 0 0 1 0 
Triangulations 0

TShapes 21
Ve
1e-07
-1 1.22464679914735e-16 1
0 0

0101101
*
Ve
1e-07
1 -2.44929359829471e-16 1
0 0

0101101
*
Ed
 1e-07 1 1 0
1  1 0 0 3.14159265358979
2  1 1 0 0 3.14159265358979
0

0101000
-21 0 +20 0 *
Ve
1e-07
1 -2.44929359829471e-16 0
0 0

0101101
*
Ed
 1e-07 1 1 0
1  2 0 0 1
2  2 1 0 0 1
2  3 2 0 0 1
0

0101000
-20 0 +18 0 *
Ve
1e-07
-1 1.22464679914735e-16 0
0 0

0101101
*
Ed
 1e-07 1 1 0
1  3 0 0 3.14159265358979
2  4 1 0 0 3.14159265358979
0

0101000
+18 0 -16 0 *
Ed
 1e-05 1 1 0
1  4 0 0 1
2  5 1 0 0 1
2  6 2 0 0 1
0

0101000
+16 0 -21 0 *
Wi

0101100
-19 0 -17 0 +15 0 +14 0 *
Fa
0  1e-07 1 0

0111000
+13 0 *
Ed
 1e-07 1 1 0
1  5 0 3.14159265358979 6.28318530717959
2  7 2 0 3.14159265358979 6.28318530717959
0

0101000
+16 0 -18 0 *
Ed
 1e-07 1 1 0
1  6 0 3.14159265358979 6.28318530717959
2  8 2 0 3.14159265358979 6.28318530717959
0

0101000
-20 0 +21 0 *
Wi

0101100
+11 0 +17 0 -10 0 -14 0 *
Fa
0  1e-07 2 0

0111000
+9 0 *
Wi

0101100
+19 0 +10 0 *
Fa
0  1e-07 3 0

0111000
+7 0 *
Wi

0101100
-15 0 -11 0 *
Fa
0  1e-07 4 0

0111000
-5 0 *
Sh

0101100
+12 0 +8 0 +6 0 -4 0 *
So

0100000
+3 0 *
Co

1100000
+2 0 *

+1 0 
##EGADS HEADER FILE-REV 1 ##
0
  1  1  4  4  6  4  6
3 7 48
capsAIM
#egadsTessAIM;aflr4AIM;tetgenAIM;aflr3AIM;pumiAIM
2 14 1
capsMeshLength
 1.000000000000e+01
3 9 3
capsGroup
#cyl
3 8 3
capsMesh
#cyl
1 5 1
_body
1
1 5 1
_brch
1
    2 0 7
1 5 2
_body
1 3 
1 5 2
_brch
1 3 
3 9 3
capsGroup
#cyl
3 8 3
capsMesh
#cyl
1 5 1
_hist
1
1 7 3
_faceID
1 3 1 
1 9 2
__trace__
1 1 
    2 1 7
1 5 2
_body
1 4 
1 5 2
_brch
1 4 
3 9 3
capsGroup
#cyl
3 8 3
capsMesh
#cyl
1 5 1
_hist
1
1 7 3
_faceID
1 4 1 
1 9 2
__trace__
1 2 
    2 2 7
1 5 2
_body
1 2 
1 5 2
_brch
1 2 
3 9 3
capsGroup
#cyl
3 8 3
capsMesh
#cyl
1 5 1
_hist
1
1 7 3
_faceID
1 2 1 
1 9 2
__trace__
1 3 
    2 3 7
1 5 2
_body
1 1 
1 5 2
_brch
1 1 
3 9 3
capsGroup
#cyl
3 8 3
capsMesh
#cyl
1 5 1
_hist
1
1 7 3
_faceID
1 1 1 
1 9 2
__trace__
1 4 
    4 0 4
1 5 2
_body
1 20003 
1 7 5
_edgeID
1 2 1 3 1 
1 6 1
_nface
2
1 9 2
__trace__
1 1 
    4 1 4
1 5 2
_body
1 40003 
1 7 5
_edgeID
1 3 1 4 2 
1 6 1
_nface
2
1 9 2
__trace__
1 2 
    4 2 4
1 5 2
_body
1 30001 
1 7 5
_edgeID
1 1 1 3 1 
1 6 1
_nface
2
1 9 2
__trace__
1 3 
    4 3 4
1 5 2
_body
1 30004 
1 7 5
_edgeID
1 3 1 4 1 
1 6 1
_nface
2
1 9 2
__trace__
1 4 
    4 4 4
1 5 2
_body
1 40001 
1 7 5
_edgeID
1 1 1 4 1 
1 6 1
_nface
2
1 9 2
__trace__
1 5 
    4 5 4
1 5 2
_body
1 20004 
1 7 5
_edgeID
1 2 1 4 1 
1 6 1
_nface
2
1 9 2
__trace__
1 6 
    5 0 3
1 7 1
_nodeID
1
1 6 1
_nedge
3
1 9 2
__trace__
1 1 
    5 1 3
1 7 1
_nodeID
2
1 6 1
_nedge
3
1 9 2
__trace__
1 2 
    5 2 3
1 7 1
_nodeID
3
1 6 1
_nedge
3
1 9 2
__trace__
1 3 
    5 3 3
1 7 1
_nodeID
4
1 6 1
_nedge
3
1 9 2
__trace__
1 4 
    0 0 0
##EGADS HEADER FILE-EXT 1 ##
2
2 1
 4 6 4
 5
 1.000000000000e+00 -2.449293598295e-16  1.000000000000e+00  0.000000000000e+00
 7.157375752727e-01  6.983693316167e-01  1.000000000000e+00  7.731166517853e-01
 1.003958055227e-02  9.999496021412e-01  1.000000000000e+00  1.560756577581e+00
-7.043010198281e-01  7.099014533505e-01  1.000000000000e+00  2.352234375320e+00
-1.000000000000e+00  1.224646799147e-16  1.000000000000e+00  3.141592653590e+00
 3
 1.000000000000e+00 -2.449293598295e-16  0.000000000000e+00  0.000000000000e+00
 1.000000000000e+00 -2.449293598295e-16  5.042932735367e-01  5.042932735367e-01
 1.000000000000e+00 -2.449293598295e-16  1.000000000000e+00  1.000000000000e+00
 5
 1.000000000000e+00 -2.449293598295e-16  0.000000000000e+00  0.000000000000e+00
 7.157375752727e-01  6.983693316167e-01  0.000000000000e+00  7.731166517853e-01
 1.003958055227e-02  9.999496021412e-01  0.000000000000e+00  1.560756577581e+00
-7.043010198281e-01  7.099014533505e-01  0.000000000000e+00  2.352234375320e+00
-1.000000000000e+00  1.224646799147e-16  0.000000000000e+00  3.141592653590e+00
 3
-1.000000000000e+00  1.224646799147e-16  0.000000000000e+00  0.000000000000e+00
-1.000000000000e+00  1.224646799147e-16  5.046446199612e-01  5.046446199612e-01
-1.000000000000e+00  1.224646799147e-16  1.000000000000e+00  1.000000000000e+00
 5
-1.000000000000e+00  1.224646799147e-16  0.000000000000e+00  3.141592653590e+00
-7.129890944958e-01 -7.011751215853e-01  0.000000000000e+00  3.918636979465e+00
-5.184750516769e-03 -9.999865590907e-01  0.000000000000e+00  4.707204206639e+00
 7.070838417178e-01 -7.071297199111e-01  0.000000000000e+00  5.497754703001e+00
 1.000000000000e+00 -2.449293598295e-16  0.000000000000e+00  6.283185307180e+00
 5
-1.000000000000e+00  1.224646799147e-16  1.000000000000e+00  3.141592653590e+00
-7.129890944958e-01 -7.011751215853e-01  1.000000000000e+00  3.918636979465e+00
-5.184750516769e-03 -9.999865590907e-01  1.000000000000e+00  4.707204206639e+00
 7.070838417178e-01 -7.071297199111e-01  1.000000000000e+00  5.497754703001e+00
 1.000000000000e+00 -2.449293598295e-16  1.000000000000e+00  6.283185307180e+00
 16 18
-1.000000000000e+00  1.224646799147e-16  1.000000000000e+00  3.141592653590e+00  1.000000000000e+00 0 1
-7.043010198281e-01  7.099014533505e-01  1.000000000000e+00  2.352234375320e+00  1.000000000000e+00 4 1
 1.003958055227e-02  9.999496021412e-01  1.000000000000e+00  1.560756577581e+00  1.000000000000e+00 3 1
 7.157375752727e-01  6.983693316167e-01  1.000000000000e+00  7.731166517853e-01  1.000000000000e+00 2 1
 1.000000000000e+00 -2.449293598295e-16  1.000000000000e+00  0.000000000000e+00  1.000000000000e+00 0 2
 1.000000000000e+00 -2.449293598295e-16  5.042932735367e-01  0.000000000000e+00  5.042932735367e-01 2 2
 1.000000000000e+00 -2.449293598295e-16  0.000000000000e+00  0.000000000000e+00  0.000000000000e+00 0 3
 7.157375752727e-01  6.983693316167e-01  0.000000000000e+00  7.731166517853e-01  0.000000000000e+00 2 3
 1.003958055227e-02  9.999496021412e-01  0.000000000000e+00  1.560756577581e+00  0.000000000000e+00 3 3
-7.043010198281e-01  7.099014533505e-01  0.000000000000e+00  2.352234375320e+00  0.000000000000e+00 4 3
-1.000000000000e+00  1.224646799147e-16  0.000000000000e+00  3.141592653590e+00  0.000000000000e+00 0 4
-1.000000000000e+00  1.224646799147e-16  5.046446199612e-01  3.141592653590e+00  5.046446199612e-01 2 4
 9.262120640741e-01  3.770029341579e-01  7.521466367684e-01  3.865583258926e-01  7.521466367684e-01 -1 -1
 9.262120640741e-01  3.770029341579e-01  2.521466367684e-01  3.865583258926e-01  2.521466367684e-01 -1 -1
-9.231199867374e-01  3.845120155287e-01  2.523223099806e-01  2.746913514455e+00  2.523223099806e-01 -1 -1
-9.231199867374e-01  3.845120155287e-01  7.523223099806e-01  2.746913514455e+00  7.523223099806e-01 -1 -1
6 13 5 11 -2 12
4 13 14 12 5 11
8 14 7 13 -3 14
14 9 10 -3 6 14
3 4 14 2 7 -1
10 15 14 7 4 16
15 3 14 5 6 8
15 2 3 -1 7 18
12 15 11 16 -4 15
2 16 1 17 -1 18
13 4 5 -1 1 2
6 14 13 2 1 13
14 6 7 -2 3 12
14 8 9 -3 4 3
12 16 15 18 9 17
15 10 11 -3 9 6
16 12 1 -4 10 15
16 2 15 8 15 10
 18 22
-1.000000000000e+00  1.224646799147e-16  0.000000000000e+00  3.141592653590e+00  0.000000000000e+00 0 4
-7.129890944958e-01 -7.011751215853e-01  0.000000000000e+00  3.918636979465e+00  0.000000000000e+00 2 5
-5.184750516769e-03 -9.999865590907e-01  0.000000000000e+00  4.707204206639e+00  0.000000000000e+00 3 5
 7.070838417178e-01 -7.071297199111e-01  0.000000000000e+00  5.497754703001e+00  0.000000000000e+00 4 5
 1.000000000000e+00 -2.449293598295e-16  0.000000000000e+00  6.283185307180e+00  0.000000000000e+00 0 3
 1.000000000000e+00 -2.449293598295e-16  5.042932735367e-01  6.283185307180e+00  5.042932735367e-01 2 2
 1.000000000000e+00 -2.449293598295e-16  1.000000000000e+00  6.283185307180e+00  1.000000000000e+00 0 2
 7.070838417178e-01 -7.071297199111e-01  1.000000000000e+00  5.497754703001e+00  1.000000000000e+00 4 6
-5.184750516769e-03 -9.999865590907e-01  1.000000000000e+00  4.707204206639e+00  1.000000000000e+00 3 6
-7.129890944958e-01 -7.011751215853e-01  1.000000000000e+00  3.918636979465e+00  1.000000000000e+00 2 6
-1.000000000000e+00  1.224646799147e-16  1.000000000000e+00  3.141592653590e+00  1.000000000000e+00 0 1
-1.000000000000e+00  1.224646799147e-16  5.046446199612e-01  3.141592653590e+00  5.046446199612e-01 2 4
-3.426683097812e-01 -9.394564542711e-01  4.992702603010e-01  4.362633278991e+00  4.992702603010e-01 -1 -1
 3.340045241688e-01 -9.425714709425e-01  5.006219770306e-01  5.052937884900e+00  5.006219770306e-01 -1 -1
-9.254699061817e-01 -3.788211355668e-01  2.523223099806e-01  3.530114816528e+00  2.523223099806e-01 -1 -1
-9.254699061817e-01 -3.788211355668e-01  7.523223099806e-01  3.530114816528e+00  7.523223099806e-01 -1 -1
 9.238733251149e-01 -3.826984180018e-01  7.521466367684e-01  5.890470005090e+00  7.521466367684e-01 -1 -1
 9.238733251149e-01 -3.826984180018e-01  2.521466367684e-01  5.890470005090e+00  2.521466367684e-01 -1 -1
2 15 1 15 -5 16
12 16 11 17 -4 18
8 17 7 19 -6 7
6 18 5 21 -2 22
14 4 18 21 20 6
14 3 4 -5 5 12
17 8 14 13 20 3
16 15 13 16 10 18
13 9 10 -6 10 14
13 10 16 17 8 9
13 2 3 -5 12 16
13 3 14 6 14 11
14 8 9 -6 14 7
14 9 13 9 12 13
15 12 1 -4 1 18
15 2 13 11 8 1
16 10 11 -6 2 10
16 12 15 15 8 2
17 6 7 -2 3 22
14 18 17 22 7 5
18 4 5 -5 4 5
18 6 17 19 20 4
 9 8
 1.000000000000e+00 -2.449293598295e-16  1.000000000000e+00  1.000000000000e+00  0.000000000000e+00 0 2
 7.157375752727e-01  6.983693316167e-01  1.000000000000e+00  7.157375752727e-01  6.983693316167e-01 2 1
 1.003958055227e-02  9.999496021412e-01  1.000000000000e+00  1.003958055227e-02  9.999496021412e-01 3 1
-7.043010198281e-01  7.099014533505e-01  1.000000000000e+00 -7.043010198281e-01  7.099014533505e-01 4 1
-1.000000000000e+00  1.224646799147e-16  1.000000000000e+00 -1.000000000000e+00  1.224646799147e-16 0 1
-7.129890944958e-01 -7.011751215853e-01  1.000000000000e+00 -7.129890944958e-01 -7.011751215853e-01 2 6
-5.184750516769e-03 -9.999865590907e-01  1.000000000000e+00 -5.184750516769e-03 -9.999865590907e-01 3 6
 7.070838417178e-01 -7.071297199111e-01  1.000000000000e+00  7.070838417178e-01 -7.071297199111e-01 4 6
 2.881280723436e-02  6.776274779281e-02  1.000000000000e+00  2.881280723436e-02  6.776274779281e-02 -1 -1
1 2 9 7 6 -1
4 5 9 8 3 -1
9 3 4 -1 2 7
9 6 7 -6 5 8
7 8 9 6 4 -6
8 1 9 1 5 -6
9 2 3 -1 3 1
9 5 6 -6 4 2
 10 10
-1.000000000000e+00  1.224646799147e-16  0.000000000000e+00 -1.000000000000e+00  1.224646799147e-16 0 4
-7.129890944958e-01 -7.011751215853e-01  0.000000000000e+00 -7.129890944958e-01 -7.011751215853e-01 2 5
-5.184750516769e-03 -9.999865590907e-01  0.000000000000e+00 -5.184750516769e-03 -9.999865590907e-01 3 5
 7.070838417178e-01 -7.071297199111e-01  0.000000000000e+00  7.070838417178e-01 -7.071297199111e-01 4 5
 1.000000000000e+00 -2.449293598295e-16  0.000000000000e+00  1.000000000000e+00  0.000000000000e+00 0 3
 7.157375752727e-01  6.983693316167e-01  0.000000000000e+00  7.157375752727e-01  6.983693316167e-01 2 3
 1.003958055227e-02  9.999496021412e-01  0.000000000000e+00  1.003958055227e-02  9.999496021412e-01 3 3
-7.043010198281e-01  7.099014533505e-01  0.000000000000e+00 -7.043010198281e-01  7.099014533505e-01 4 3
 1.747067141058e-01  1.902602712368e-01  0.000000000000e+00  1.747067141058e-01  1.902602712368e-01 -1 -1
-1.726373882737e-01 -1.886289904669e-01  0.000000000000e+00 -1.726373882737e-01 -1.886289904669e-01 -1 -1
7 6 9 3 2 -3
8 7 9 1 7 -3
9 6 5 -3 4 1
9 5 4 -5 5 3
10 9 4 4 10 7
10 1 8 -3 7 8
8 9 10 5 6 2
10 2 1 -5 6 9
3 2 10 8 10 -5
4 3 10 9 5 -5
0
